<svg xmlns="http://www.w3.org/2000/svg" xmlns:xlink="http://www.w3.org/1999/xlink" width="512" height="512" viewBox="0 0 512 512">
  <defs>
    <clipPath id="clip-_512">
      <rect width="512" height="512"/>
    </clipPath>
  </defs>
  <g id="_512" data-name="512" clip-path="url(#clip-_512)">
    <g id="lips-logo-icon" transform="translate(-1.985 27.564)">
      <path id="Path_5" data-name="Path 5" d="M478.648,189.133c-6.847-20.8,3.307-39.644,6.18-54.193h-1.052a8.614,8.614,0,0,0-.04-1.014c-24.079.632-42.852,9.79-48.157,27.3q-2.473,16.889-4.92,33.786c-5.185,13.558-19.424,24.44-23.581,38.575a12.313,12.313,0,0,0-1.71,2.551c.875-3.9,1.935-7.707,2.48-11.608a190.282,190.282,0,0,0-.04-45.651,163.949,163.949,0,0,0-7.408-30.953c-.554-1.849-1.028-5.835-2.593-7.154-3.9-3.253-13.042.39-16.59,2.27a73.46,73.46,0,0,0-18,14.4,49.481,49.481,0,0,0-11.373,18.114,180.8,180.8,0,0,1-9.4,16.733c-2.3,4.212-3.741,10.75-8.387,13.129-.923.461-.369-4.407-.394-4.135.217-2.606.747-6.155.988-9.119a112.753,112.753,0,0,1,3.892-22.256c1.132-3.97,6.421-19.721,4.126-22.677-2.1-2.746-15.474-2.614-18.692-1.327a55.094,55.094,0,0,0-15.306,10.017A78.343,78.343,0,0,0,290.85,182.05a88.343,88.343,0,0,0-6.421,21.975,79.956,79.956,0,0,1-3.138,20.337A304.8,304.8,0,0,1,262.22,254.52c-5.482,7.746-22.843,22.981-27.5,19.377-3.355-2.6-2.865-12.068-2.906-15.6a106.756,106.756,0,0,1,1.959-20.009c2.367-13.215,3.211-26.632,5.12-39.9,1.8-12.419,4.816-24.611,7.738-36.8,1.469-6.053,3.306-9.977-4.583-11.35a44.713,44.713,0,0,0-22.7,2.145c-13.139,5.265-19.488,19.573-23.492,31.866a298.493,298.493,0,0,0-10.506,51.369c-2.136,15.166-29.642,47.851-37.138,48.756s-8.026-8.276-9.319-13.129a127.112,127.112,0,0,1-2.56-43.747c1.541-17.334.442-37.765,7.706-53.928a362.429,362.429,0,0,1,20.354-32.35,356.9,356.9,0,0,0,21.4-56.253c.931-5.336,2.031-10.648,2.906-16a73.386,73.386,0,0,0-.265-32.522,36.985,36.985,0,0,0-14.095-20.852,27.606,27.606,0,0,0-20.066.631c-16.574,3.986-31.157,10.032-40,25.1a449.963,449.963,0,0,0-19.7,59.061c-5.129,22.888-9.126,88.15-10.13,99.945a102.531,102.531,0,0,1-6.268,29.254c-6.526,16.757-64.21,66.885-67.493,73.329s-1.188,7.364,1.34,7.068c13.765-1.608,62.766-56.518,66.49-57.181,8.411-1.5,10.924,18.66,12.8,23.6a40.518,40.518,0,0,0,9.575,15.216,42,42,0,0,0,15.351,9.775,42.938,42.938,0,0,0,35.689-2.877c16.052-8.651,29.376-34.7,31.223-30.728,3.4,4.314,1.532,14.915,4.976,19.159,4.567,11.085,23.364,16.983,39.176,10.718,22.474-8.878,45.059-35.58,52.17-44.177-.875,8.441-2.287,16.913-3.419,25.135-1.533,11.108-2.143,21.952-2.689,33.123-.554,11.311-3.211,22.5-4.759,33.707-1.918,13.839-5.5,27.436-6.943,41.345a74.482,74.482,0,0,0,1.686,26.523,64.583,64.583,0,0,0,11.815,20.157,19.037,19.037,0,0,0,6.467,6.493,19.709,19.709,0,0,0,8.839,2.806c6.116.351,9.19-1.381,9.407-7.333a285.721,285.721,0,0,1,8.877-56.58q5.563-23.778,10.186-47.773,2.32-12.084,4.358-24.183c1.156-6.849.425-13.62,1.051-20.477.723-7.746,2.577-15.305,3.283-23.036a86.107,86.107,0,0,1,4.278-24.183,151.733,151.733,0,0,1,11.942-23.223c2.873-4.681,7.922-15.852,13.822-17.607,7.8-2.34,4.88,31.71,4.88,35.884,0,15.8,1.822,36.157-10.21,48.771-4.4,4.61-8.347,9.611-12.649,14.315a13.033,13.033,0,0,0-4.014,5.711c-.193.9.722,9.431,12.111,5.57a74.475,74.475,0,0,0,34.417-26.133c3.38-4.376,7.111-8.463,10.691-12.7,6.855-8.144,12.978-16.031,19.207-24.722q5.161-7.216,10.009-14.634a106.387,106.387,0,0,1,9.335-15.025c7.424.546,8.508,7.894,10.924,13.262,2.311,5.172,5.69,9.931,8.436,14.907a75.276,75.276,0,0,1,11.9,35.05c0,7.926-2.408,18.589-12.385,19.619a17.308,17.308,0,0,1-9.349-.72,16.821,16.821,0,0,1-7.506-5.465c-2.2-3.854.466-9.252-1.565-12.567-1.477-2.411.465-.733-2.167-1.951-14.986-6.241-10.105,20.15-5.2,26.671,24.368,32.413,65.237-3.5,76.57-23.3C520.088,247.967,487.662,216.506,478.648,189.133ZM167.229,29.121c6.855-.405,10.1,21.9,7.673,34.324-6.421,32.764-22.225,76-26.23,76.34s-.69,0-1.052.039c-.69-30.369,12.722-110.3,19.617-110.7Z" transform="translate(0 0)" fill="#fd3398"/>
      <path id="Path_6" data-name="Path 6" d="M55.429,66.453a42.856,42.856,0,0,0,15.815-7.041A42.372,42.372,0,0,0,82.92,46.722a20.562,20.562,0,0,0-3.837-17.391,24.131,24.131,0,0,0-24.552-5.2,28.549,28.549,0,0,0-13.108,6.743A28.117,28.117,0,0,0,33.5,43.213a18.4,18.4,0,0,0,4.314,17.767,18.85,18.85,0,0,0,17.614,5.473Z" transform="translate(172.608 62.183)" fill="#fd3398"/>
    </g>
  </g>
</svg>
