<svg xmlns="http://www.w3.org/2000/svg" xmlns:xlink="http://www.w3.org/1999/xlink" width="32" height="32" viewBox="0 0 32 32">
  <defs>
    <clipPath id="clip-Favicon">
      <rect width="32" height="32"/>
    </clipPath>
  </defs>
  <g id="Favicon" clip-path="url(#clip-Favicon)">
    <g id="lips-logo-icon" transform="translate(-8 -11)">
      <path id="Path_5" data-name="Path 5" d="M37.341,24.52c-.413-1.25.2-2.381.373-3.255H37.65a.514.514,0,0,0,0-.061c-1.453.038-2.586.588-2.906,1.64q-.149,1.014-.3,2.029c-.313.814-1.172,1.468-1.423,2.317a.739.739,0,0,0-.1.153c.053-.234.117-.463.15-.7a11.377,11.377,0,0,0,0-2.742,9.809,9.809,0,0,0-.447-1.859c-.033-.111-.062-.351-.156-.43-.235-.2-.787.023-1,.136a4.43,4.43,0,0,0-1.086.865,2.97,2.97,0,0,0-.686,1.088,10.847,10.847,0,0,1-.567,1.005c-.139.253-.226.646-.506.789-.056.028-.022-.265-.024-.248.013-.157.045-.37.06-.548a6.744,6.744,0,0,1,.235-1.337c.068-.238.387-1.185.249-1.362s-.934-.157-1.128-.08a3.326,3.326,0,0,0-.924.6,4.705,4.705,0,0,0-1.075,1.569,5.288,5.288,0,0,0-.387,1.32,4.782,4.782,0,0,1-.189,1.222,18.3,18.3,0,0,1-1.151,1.812c-.331.465-1.378,1.38-1.659,1.164-.2-.156-.173-.725-.175-.937a6.384,6.384,0,0,1,.118-1.2c.143-.794.194-1.6.309-2.4.108-.746.291-1.478.467-2.211.089-.364.2-.6-.277-.682a2.71,2.71,0,0,0-1.37.129,2.854,2.854,0,0,0-1.418,1.914,17.858,17.858,0,0,0-.634,3.086A5.923,5.923,0,0,1,17.4,30.24c-.452.054-.484-.5-.562-.789a7.6,7.6,0,0,1-.155-2.628,10.212,10.212,0,0,1,.465-3.239,21.756,21.756,0,0,1,1.228-1.943,21.377,21.377,0,0,0,1.291-3.379c.056-.32.123-.64.175-.961a4.388,4.388,0,0,0-.016-1.953,2.221,2.221,0,0,0-.851-1.252,1.673,1.673,0,0,0-1.211.038,3.479,3.479,0,0,0-2.414,1.507,26.941,26.941,0,0,0-1.189,3.548c-.309,1.375-.551,5.295-.611,6a6.134,6.134,0,0,1-.378,1.757c-.394,1.007-3.875,4.018-4.073,4.4s-.072.442.081.425c.831-.1,3.788-3.395,4.012-3.435.508-.09.659,1.121.772,1.417a2.432,2.432,0,0,0,.578.914,2.536,2.536,0,0,0,.926.587,2.6,2.6,0,0,0,2.154-.173c.969-.52,1.773-2.084,1.884-1.846.205.259.092.9.3,1.151a1.9,1.9,0,0,0,2.364.644,9.614,9.614,0,0,0,3.148-2.654c-.053.507-.138,1.016-.206,1.51-.093.667-.129,1.319-.162,1.99s-.194,1.351-.287,2.025c-.116.831-.332,1.648-.419,2.483a4.454,4.454,0,0,0,.1,1.593,3.875,3.875,0,0,0,.713,1.211,1.146,1.146,0,0,0,.39.39,1.193,1.193,0,0,0,.533.169c.369.021.555-.083.568-.44a17.089,17.089,0,0,1,.536-3.4q.336-1.428.615-2.87.14-.726.263-1.453c.07-.411.026-.818.063-1.23.044-.465.155-.919.2-1.384a5.151,5.151,0,0,1,.258-1.453,9.1,9.1,0,0,1,.721-1.395c.173-.281.478-.952.834-1.058.471-.141.294,1.9.294,2.155,0,.949.11,2.172-.616,2.929-.265.277-.5.577-.763.86a.783.783,0,0,0-.242.343c-.012.054.044.567.731.335a4.492,4.492,0,0,0,2.077-1.57c.2-.263.429-.508.645-.763.414-.489.783-.963,1.159-1.485q.311-.433.6-.879a6.385,6.385,0,0,1,.563-.9c.448.033.513.474.659.8s.343.6.509.9a4.508,4.508,0,0,1,.718,2.105c0,.476-.145,1.117-.747,1.178a1.049,1.049,0,0,1-.564-.043,1.015,1.015,0,0,1-.453-.328c-.133-.231.028-.556-.094-.755-.089-.145.028-.044-.131-.117-.9-.375-.61,1.21-.314,1.6,1.47,1.947,3.937-.21,4.621-1.4C39.841,28.054,37.885,26.164,37.341,24.52ZM18.548,14.908c.414-.024.61,1.315.463,2.062-.387,1.968-1.341,4.565-1.583,4.585s-.042,0-.063,0c-.042-1.824.768-6.626,1.184-6.65Z" transform="translate(0 0)" fill="#fd3398"/>
      <path id="Path_6" data-name="Path 6" d="M34.132,25.384a2.57,2.57,0,0,0,.948-.422,2.541,2.541,0,0,0,.7-.761,1.233,1.233,0,0,0-.23-1.043,1.447,1.447,0,0,0-1.472-.312,1.712,1.712,0,0,0-.786.4,1.686,1.686,0,0,0-.475.74,1.1,1.1,0,0,0,.259,1.065,1.13,1.13,0,0,0,1.056.328Z" transform="translate(-11.915 -4.502)" fill="#fd3398"/>
    </g>
  </g>
</svg>
