<svg xmlns="http://www.w3.org/2000/svg" xmlns:xlink="http://www.w3.org/1999/xlink" width="192" height="192" viewBox="0 0 192 192">
  <defs>
    <clipPath id="clip-_192">
      <rect width="192" height="192"/>
    </clipPath>
  </defs>
  <g id="_192" data-name="192" clip-path="url(#clip-_192)">
    <g id="lips-logo-icon" transform="translate(-3 4.467)">
      <path id="Path_5" data-name="Path 5" d="M178.763,77.3c-2.475-7.52,1.2-14.33,2.234-19.589h-.38a3.112,3.112,0,0,0-.015-.367c-8.7.229-15.49,3.539-17.407,9.869q-.894,6.1-1.779,12.212c-1.874,4.9-7.021,8.834-8.524,13.944a4.452,4.452,0,0,0-.618.922c.316-1.41.7-2.786.9-4.2a68.78,68.78,0,0,0-.015-16.5,59.262,59.262,0,0,0-2.678-11.189c-.2-.669-.372-2.109-.937-2.586-1.41-1.176-4.714.141-6,.82a26.553,26.553,0,0,0-6.508,5.205,17.886,17.886,0,0,0-4.111,6.548,65.354,65.354,0,0,1-3.4,6.048c-.83,1.523-1.352,3.886-3.032,4.746-.334.166-.133-1.593-.142-1.495.078-.942.27-2.225.357-3.3a40.757,40.757,0,0,1,1.407-8.045c.409-1.435,2.321-7.128,1.491-8.2-.76-.993-5.594-.945-6.757-.48A19.915,19.915,0,0,0,117.32,65.3a28.319,28.319,0,0,0-6.441,9.443,31.933,31.933,0,0,0-2.321,7.943,28.9,28.9,0,0,1-1.134,7.351,110.175,110.175,0,0,1-6.893,10.9c-1.981,2.8-8.257,8.307-9.94,7-1.213-.942-1.036-4.362-1.05-5.64a38.589,38.589,0,0,1,.708-7.233C91.1,90.3,91.41,85.446,92.1,80.649c.65-4.489,1.741-8.9,2.8-13.3.531-2.188,1.2-3.606-1.657-4.1a16.162,16.162,0,0,0-8.2.775c-4.749,1.9-7.044,7.075-8.492,11.519a107.9,107.9,0,0,0-3.8,18.568c-.772,5.482-10.714,17.3-13.424,17.624s-2.9-2.992-3.368-4.746a45.947,45.947,0,0,1-.925-15.813c.557-6.266.16-13.651,2.785-19.493a131.007,131.007,0,0,1,7.357-11.693A129.009,129.009,0,0,0,72.905,39.65c.337-1.929.734-3.849,1.05-5.783a26.527,26.527,0,0,0-.1-11.756,13.369,13.369,0,0,0-5.095-7.537,9.979,9.979,0,0,0-7.253.228c-5.991,1.441-11.262,3.626-14.459,9.071a162.647,162.647,0,0,0-7.12,21.349c-1.854,8.273-3.3,31.863-3.662,36.127a37.062,37.062,0,0,1-2.266,10.574C31.647,97.98,10.8,116.1,9.609,118.429s-.429,2.662.485,2.555c4.975-.581,22.688-20.429,24.034-20.669,3.04-.541,3.949,6.745,4.627,8.53a14.646,14.646,0,0,0,3.461,5.5,15.18,15.18,0,0,0,5.549,3.534,15.521,15.521,0,0,0,12.9-1.04c5.8-3.127,10.619-12.542,11.286-11.107,1.23,1.559.554,5.391,1.8,6.925,1.651,4.007,8.445,6.139,14.161,3.874,8.123-3.209,16.287-12.861,18.858-15.969-.316,3.051-.827,6.113-1.236,9.086-.554,4.015-.775,7.935-.972,11.973-.2,4.088-1.161,8.132-1.72,12.184-.693,5-1.987,9.917-2.51,14.945a26.923,26.923,0,0,0,.609,9.587,23.345,23.345,0,0,0,4.271,7.286,6.881,6.881,0,0,0,2.338,2.347,7.124,7.124,0,0,0,3.195,1.014c2.211.127,3.322-.5,3.4-2.65a103.279,103.279,0,0,1,3.209-20.452q2.011-8.595,3.682-17.268.838-4.368,1.575-8.742c.418-2.476.154-4.923.38-7.4.261-2.8.931-5.532,1.187-8.327a31.125,31.125,0,0,1,1.546-8.741,54.847,54.847,0,0,1,4.317-8.395c1.039-1.692,2.864-5.73,5-6.364,2.82-.846,1.764,11.462,1.764,12.971,0,5.713.658,13.07-3.691,17.629-1.59,1.667-3.017,3.474-4.572,5.174a4.711,4.711,0,0,0-1.451,2.064c-.07.327.261,3.409,4.378,2.013a26.921,26.921,0,0,0,12.441-9.446c1.222-1.582,2.57-3.059,3.865-4.59,2.478-2.944,4.691-5.795,6.943-8.936q1.866-2.608,3.618-5.29A38.456,38.456,0,0,1,161.7,86.8c2.683.2,3.075,2.854,3.949,4.794.835,1.87,2.057,3.59,3.049,5.388a27.21,27.21,0,0,1,4.3,12.669c0,2.865-.87,6.719-4.477,7.092a6.256,6.256,0,0,1-3.379-.26,6.08,6.08,0,0,1-2.713-1.976c-.795-1.393.168-3.344-.566-4.543-.534-.871.168-.265-.783-.705-5.417-2.256-3.653,7.284-1.88,9.641,8.808,11.716,23.581-1.266,27.678-8.423C193.742,98.572,182.021,87.2,178.763,77.3ZM66.195,19.466c2.478-.147,3.653,7.915,2.774,12.407-2.321,11.843-8.033,27.473-9.481,27.594s-.249,0-.38.014c-.249-10.977,4.6-39.872,7.091-40.015Z" transform="translate(0 0)" fill="#fd3398"/>
      <path id="Path_6" data-name="Path 6" d="M40.963,38.557a15.491,15.491,0,0,0,5.717-2.545A15.316,15.316,0,0,0,50.9,31.425a7.433,7.433,0,0,0-1.387-6.286,8.722,8.722,0,0,0-8.875-1.88A10.319,10.319,0,0,0,35.9,25.7a10.163,10.163,0,0,0-2.864,4.461A6.651,6.651,0,0,0,34.6,36.578a6.814,6.814,0,0,0,6.367,1.978Z" transform="translate(47.212 16.88)" fill="#fd3398"/>
    </g>
  </g>
</svg>
