<?xml version="1.0" encoding="utf-8"?>
<!-- Generator: Adobe Illustrator 16.0.3, SVG Export Plug-In . SVG Version: 6.00 Build 0)  -->
<!DOCTYPE svg PUBLIC "-//W3C//DTD SVG 1.1//EN" "http://www.w3.org/Graphics/SVG/1.1/DTD/svg11.dtd">
<svg version="1.1" id="Capa_1" xmlns="http://www.w3.org/2000/svg" xmlns:xlink="http://www.w3.org/1999/xlink" x="0px" y="0px"
	 width="612px" height="792px" viewBox="0 0 612 792" enable-background="new 0 0 612 792" xml:space="preserve">
<g>
	<g>
		<g>
			<path fill="#F385AA" d="M306,90C137,90,0,227,0,396c0.19,168.921,137.08,305.81,306,306c169,0,306-137,306-306
				C612,227,475,90,306,90z M306,682.258C147.904,682.258,19.742,554.096,19.742,396C19.922,237.978,147.978,109.922,306,109.742
				c158.096,0,286.258,128.162,286.258,286.258S464.096,682.258,306,682.258z"/>
			<path fill="#F385AA" d="M493.549,386.129H315.871V208.452c0-5.451-4.42-9.871-9.871-9.871s-9.871,4.42-9.871,9.871v177.677
				H118.452c-5.451,0-9.871,4.42-9.871,9.871s4.42,9.871,9.871,9.871h177.677v177.678c0,5.451,4.42,9.87,9.871,9.87
				s9.871-4.419,9.871-9.87V405.871h177.678c5.451,0,9.87-4.42,9.87-9.871S499,386.129,493.549,386.129z"/>
		</g>
	</g>
</g>
</svg>
