<?xml version="1.0" encoding="utf-8"?>
<!-- Generator: Adobe Illustrator 16.0.3, SVG Export Plug-In . SVG Version: 6.00 Build 0)  -->
<!DOCTYPE svg PUBLIC "-//W3C//DTD SVG 1.1//EN" "http://www.w3.org/Graphics/SVG/1.1/DTD/svg11.dtd">
<svg version="1.1" id="Capa_1" xmlns="http://www.w3.org/2000/svg" xmlns:xlink="http://www.w3.org/1999/xlink" x="0px" y="0px"
	 width="686.686px" height="543px" viewBox="0 -25 686.686 543" enable-background="new 0 -25 686.686 543" xml:space="preserve">
<path fill="#999933" d="M585.899,172.3h-35.6v-63.934c0-15.371-12.504-27.866-27.865-27.866h-252.48l-51-71.4H27.366
	C12.005,9.1-0.5,21.605-0.5,36.966v445.608h0.061c-0.051,5.742,1.734,11.361,5.325,16.063c4.998,6.528,12.566,10.263,20.777,10.263
	h456.542c11.791,0,22.174-7.946,24.988-18.493L611.5,204.42v-1.806C611.5,185.05,600.729,172.3,585.899,172.3z M19.9,36.966
	c0-4.121,3.356-7.466,7.466-7.466h181.081l51,71.4h262.978c4.119,0,7.465,3.346,7.465,7.466V172.3H129.356
	c-1.469,0-2.928,0.123-4.345,0.367c-9.925,1.663-18.177,8.905-20.635,18.115L19.9,421.17V36.966z M487.764,484.246
	c-0.674,2.5-2.969,4.254-5.559,4.254H25.663c-2.479,0-3.927-1.418-4.57-2.265c-0.643-0.836-1.632-2.611-1.254-4.161l103.948-285.121
	c0.673-2.499,2.968-4.253,5.559-4.253h420.953h35.6c3.877,0,4.865,5.569,5.119,8.354L487.764,484.246z"/>
<path fill="#999933" d="M653.28,67.338V32.711c0.063-20.599-10.892-39.657-28.719-49.974c-17.83-10.317-39.814-10.317-57.642,0
	c-17.827,10.316-28.781,29.376-28.719,49.974v35.866c-1.164,1.038-2.297,2.113-3.412,3.223
	c-34.089,34.042-34.13,89.271-0.092,123.365c34.036,34.096,89.264,34.148,123.369,0.121c34.103-34.029,34.169-89.259,0.148-123.368
	C656.618,70.324,654.977,68.795,653.28,67.338z M601.474,155.042v14.131c0,2.782-2.254,5.036-5.036,5.036
	c-2.78,0-5.034-2.254-5.034-5.036v-14.131c-8.194-2.493-13.328-10.614-12.07-19.089c1.261-8.472,8.539-14.747,17.104-14.747
	c8.566,0,15.844,6.275,17.106,14.747C614.804,144.428,609.672,152.549,601.474,155.042z M643.215,59.854
	c-29.084-18.369-66.229-18.008-94.947,0.923V32.711c0-26.22,21.253-47.476,47.473-47.476c26.222,0,47.475,21.255,47.475,47.476
	V59.854L643.215,59.854z"/>
</svg>
