<svg xmlns="http://www.w3.org/2000/svg" width="34.737" height="23.157" viewBox="0 0 34.737 23.157"><defs><style>.a,.b{fill:#000;stroke:none;stroke-miterlimit:10;stroke-width:2px;}.a{fill-rule:evenodd;}</style></defs><g transform="translate(1 0.984)"><path class="a" d="M684.227,832.949s-4.1-5.214-6.58-6.58a15.441,15.441,0,0,0-6.083-2.011c-1.427-.1-2.017,1.6-3.554,1.315s-2.964-1.721-5.137-1.319-10.864,10.457-10.864,10.892,1.8,1.365,3.787.435,2.688-2.547,5.8-2.891a26.633,26.633,0,0,1,6.519-.258,10.24,10.24,0,0,0,3-.146c1.031-.02,3.379-.9,4.547-.6s3.651,1.838,4.955,2.124S684.227,832.949,684.227,832.949Z" transform="translate(-652.01 -824.284)"/><path class="b" d="M684.768,844a.816.816,0,0,0-.77-.514,1.285,1.285,0,0,0-.518.126,5.8,5.8,0,0,1-2.291.452,7.587,7.587,0,0,1-3.576-.946,3.946,3.946,0,0,0-1.9-.457,7.32,7.32,0,0,0-4.474,1.8A5.558,5.558,0,0,1,668,845.943a2.428,2.428,0,0,1-.895-.166,10.654,10.654,0,0,1-1.534-.786,5.88,5.88,0,0,0-3.181-1.04,14.878,14.878,0,0,0-4.518,1.248,14.111,14.111,0,0,1-2.253.75,8.16,8.16,0,0,1-1.149.078,7.452,7.452,0,0,1-1.107-.075.745.745,0,0,0-.583,1.321c.853.667,8.4,6.533,10.787,6.952a8.2,8.2,0,0,0,1.435.129,10.8,10.8,0,0,0,2.161-.255,8.627,8.627,0,0,1,1.656-.208c.2,0,.437,0,.712.009.377.007.817.014,1.295.014h0c2.221,0,5.344-.159,6.817-1.527.733-.681,2.512-2.423,4.169-4.163C685.08,844.792,684.956,844.476,684.768,844Z" transform="translate(-652.243 -833.182)"/></g></svg>
