<svg xmlns="http://www.w3.org/2000/svg" width="22.781" height="31" viewBox="0 0 22.781 31"><defs><style>.a{fill:#fd3398;}</style></defs><path class="a" d="M-247.921-408.2h-1.928v-4.268A7.437,7.437,0,0,0-257.11-420a7.437,7.437,0,0,0-7.262,7.536v4.268H-266.3v-4.268A9.366,9.366,0,0,1-257.11-422a9.366,9.366,0,0,1,9.19,9.536v4.268" transform="translate(268.501 422)"/><path class="a" d="M-249.926-383.694h-16.568a3.2,3.2,0,0,1-3.106-3.2v-12.8a3.2,3.2,0,0,1,3.106-3.2h16.568a3.2,3.2,0,0,1,3.106,3.2v12.8a3.155,3.155,0,0,1-3.106,3.2Zm-16.568-17.072a1.038,1.038,0,0,0-1.035,1.067v12.8a1.038,1.038,0,0,0,1.035,1.067h16.568a1.038,1.038,0,0,0,1.035-1.067v-12.8a1.038,1.038,0,0,0-1.035-1.067Z" transform="translate(269.6 414.694)"/><path class="a" d="M-250.932-394.366a2.107,2.107,0,0,1-2.134,2.134,2.107,2.107,0,0,1-2.134-2.134,2.107,2.107,0,0,1,2.134-2.134,2.149,2.149,0,0,1,2.134,2.134" transform="translate(264.456 412.926)"/><path class="a" d="M-252.266-393.3h-1.067l-1.067,6.4h3.2l-1.067-6.4" transform="translate(264.19 411.732)"/></svg>