<svg xmlns="http://www.w3.org/2000/svg" width="11.077" height="48" viewBox="0 0 11.077 48"><defs><style>.a{fill:#fd3398;}</style></defs><path class="a" d="M21.346,36.5h7.385a.609.609,0,0,0,.615-.615V5.115a.609.609,0,0,0-.615-.615H21.346a.609.609,0,0,0-.615.615V35.885A.609.609,0,0,0,21.346,36.5Zm.615-30.769h6.154V35.269H21.962ZM25.038,52.5A5.538,5.538,0,1,0,19.5,46.962,5.547,5.547,0,0,0,25.038,52.5Zm0-9.846a4.308,4.308,0,1,1-4.308,4.308A4.312,4.312,0,0,1,25.038,42.654Z" transform="translate(-19.5 -4.5)"/></svg>