<svg xmlns="http://www.w3.org/2000/svg" width="23.009" height="23.012" viewBox="0 0 23.009 23.012"><defs><style>.a{fill:#fd3398;}</style></defs><path class="a" d="M695.275,76.965h-.685a9.924,9.924,0,0,0-1.724-4.149l.487-.487a.917.917,0,0,0,0-1.293l-1.068-1.068a.911.911,0,0,0-1.292,0l-.49.488a9.925,9.925,0,0,0-4.149-1.721v-.688a.915.915,0,0,0-.914-.914h-1.511a.915.915,0,0,0-.916.914v.688a9.923,9.923,0,0,0-4.148,1.723l-.487-.488a.914.914,0,0,0-1.295,0l-1.068,1.068a.914.914,0,0,0,0,1.294l.489.489a9.943,9.943,0,0,0-1.722,4.148h-.688a.914.914,0,0,0-.913.914v1.511a.914.914,0,0,0,.913.915h.688a9.939,9.939,0,0,0,1.722,4.149l-.489.488a.914.914,0,0,0,0,1.294l1.068,1.068a.914.914,0,0,0,1.292,0l.49-.488a9.937,9.937,0,0,0,4.148,1.723v.688a.915.915,0,0,0,.916.914h1.511a.915.915,0,0,0,.914-.914v-.688a9.936,9.936,0,0,0,4.15-1.723l.489.488a.913.913,0,0,0,1.292,0l1.068-1.068a.916.916,0,0,0,0-1.293l-.487-.486a9.934,9.934,0,0,0,1.724-4.15h.686a.914.914,0,0,0,.913-.915V77.882A.915.915,0,0,0,695.275,76.965ZM684.684,85.5a6.864,6.864,0,1,1,6.863-6.863A6.871,6.871,0,0,1,684.684,85.5Z" transform="translate(-673.179 -67.131)"/></svg>