<svg xmlns="http://www.w3.org/2000/svg" width="37.18" height="37.179" viewBox="0 0 37.18 37.179"><defs><style>.a,.b{fill:#1a1a1a;}.b{stroke:#fd3398;stroke-miterlimit:10;stroke-width:2px;}</style></defs><path class="a" d="M76.368,234.926a18.589,18.589,0,0,1-18.589,18.587h0a18.589,18.589,0,0,1-18.591-18.587h0a18.591,18.591,0,0,1,18.591-18.592h0a18.591,18.591,0,0,1,18.589,18.592Z" transform="translate(-39.188 -216.334)"/><path class="b" d="M64.808,231.75a7.441,7.441,0,0,1-7.441,7.44h0a7.443,7.443,0,0,1-7.442-7.44h0a7.443,7.443,0,0,1,7.442-7.443h0a7.442,7.442,0,0,1,7.441,7.443Z" transform="translate(-38.733 -215.996)"/><path class="b" d="M43.255,245.806a17.921,17.921,0,0,1,14.4-7.223h0A17.92,17.92,0,0,1,72,245.751" transform="translate(-39.015 -215.39)"/></svg>