<svg xmlns="http://www.w3.org/2000/svg" width="30" height="23.684" viewBox="0 0 30 23.684"><defs><style>.a{fill:#fd3398;}</style></defs><path class="a" d="M23.048,971.112c-7.895,0-12.632,6.316-12.632,9.474s1.579,5.526,4.737,5.526,4.737.789,4.737,3.158a5.4,5.4,0,0,0,5.526,5.526c10.263,0,15-5.526,15-11.052C40.417,974.27,32.522,971.112,23.048,971.112Zm-1.974,3.158a1.974,1.974,0,1,1-1.974,1.974A1.974,1.974,0,0,1,21.075,974.27Zm6.316,0a1.974,1.974,0,1,1-1.974,1.974A1.974,1.974,0,0,1,27.39,974.27Zm6.316,3.158a1.974,1.974,0,1,1-1.974,1.974A1.974,1.974,0,0,1,33.706,977.428Zm-18.158,1.579a1.974,1.974,0,1,1-1.974,1.974A1.974,1.974,0,0,1,15.548,979.007Zm9.868,7.895a2.368,2.368,0,1,1-2.368,2.368,2.368,2.368,0,0,1,2.368-2.368Z" transform="translate(-10.417 -971.112)"/></svg>