<svg xmlns="http://www.w3.org/2000/svg" width="30.5" height="30.5" viewBox="0 0 30.5 30.5"><defs><style>.a{fill:none;}.b,.d{fill:#fd3398;}.c,.d{stroke:none;}</style></defs><g class="a"><path class="c" d="M15.25,0A15.25,15.25,0,1,1,0,15.25,15.25,15.25,0,0,1,15.25,0Z"/><path class="d" d="M 15.25 1 C 11.44368934631348 1 7.865200042724609 2.482259750366211 5.173730850219727 5.173730850219727 C 2.482259750366211 7.865200042724609 1 11.44368934631348 1 15.25 C 1 19.05630874633789 2.482259750366211 22.63479995727539 5.173730850219727 25.32627105712891 C 7.865200042724609 28.01774024963379 11.44368934631348 29.5 15.25 29.5 C 19.05630874633789 29.5 22.63479995727539 28.01774024963379 25.32627105712891 25.32627105712891 C 28.01774024963379 22.63479995727539 29.5 19.05630874633789 29.5 15.25 C 29.5 11.44368934631348 28.01774024963379 7.865200042724609 25.32627105712891 5.173730850219727 C 22.63479995727539 2.482259750366211 19.05630874633789 1 15.25 1 M 15.25 0 C 23.67234039306641 0 30.5 6.827659606933594 30.5 15.25 C 30.5 23.67234039306641 23.67234039306641 30.5 15.25 30.5 C 6.827659606933594 30.5 0 23.67234039306641 0 15.25 C 0 6.827659606933594 6.827659606933594 0 15.25 0 Z"/></g><path class="b" d="M28.607,14C25.511,14,23,16.041,23,18.558a.636.636,0,0,0,1.246,0,3.8,3.8,0,0,1,3.433-3.464,4.691,4.691,0,0,1,4.894,1.989,3.156,3.156,0,0,1-1.349,4.311l-1,.608a4.339,4.339,0,0,0-2.243,3.647v2.026a.636.636,0,0,0,1.246,0V25.649a3.375,3.375,0,0,1,1.745-2.836l1-.608a4.1,4.1,0,0,0,1.955-5.088A5.635,5.635,0,0,0,28.607,14Zm0,17.221a.517.517,0,1,0,0,1.013h0a.517.517,0,1,0,0-1.013Z" transform="translate(-13.715 -8.326)"/></svg>