<?xml version="1.0" encoding="utf-8"?>
<!-- Generator: Adobe Illustrator 16.0.3, SVG Export Plug-In . SVG Version: 6.00 Build 0)  -->
<!DOCTYPE svg PUBLIC "-//W3C//DTD SVG 1.1//EN" "http://www.w3.org/Graphics/SVG/1.1/DTD/svg11.dtd">
<svg version="1.1" id="Capa_1" xmlns="http://www.w3.org/2000/svg" xmlns:xlink="http://www.w3.org/1999/xlink" x="0px" y="0px"
	 width="612px" height="792px" viewBox="0 0 612 792" enable-background="new 0 0 612 792" xml:space="preserve">
<path fill="#F385A8" d="M598.716,368.562c12.047-11.74,16.299-28.97,11.103-44.987c-5.208-16.017-18.773-27.451-35.44-29.877
	l-148.184-21.532c-6.312-0.919-11.765-4.877-14.583-10.6l-66.249-134.275c-7.438-15.085-22.536-24.46-39.362-24.46
	c-16.813,0-31.911,9.375-39.35,24.46l-66.261,134.275c-2.819,5.723-8.284,9.681-14.596,10.6L37.61,293.71
	c-16.654,2.414-30.22,13.848-35.429,29.865c-5.196,16.017-0.943,33.247,11.103,44.987L120.5,473.07
	c4.571,4.46,6.667,10.882,5.588,17.156L100.783,637.81c-2.843,16.581,3.836,33.015,17.451,42.916
	c13.603,9.914,31.311,11.201,46.225,3.346l132.522-69.681c5.649-2.965,12.39-2.965,18.039,0l132.534,69.681
	c6.471,3.407,13.48,5.086,20.453,5.086c9.057,0,18.076-2.831,25.772-8.432c13.614-9.901,20.293-26.335,17.45-42.916l-25.318-147.571
	c-1.078-6.286,1.018-12.695,5.589-17.156L598.716,368.562z M461.77,494.381l25.306,147.571c1.274,7.426-1.605,14.521-7.708,18.958
	c-6.115,4.424-13.726,4.963-20.404,1.482L326.429,592.7c-6.385-3.346-13.419-5.036-20.429-5.036s-14.032,1.69-20.429,5.049
	l-132.51,69.68c-6.703,3.48-14.313,2.941-20.416-1.482c-6.103-4.437-8.971-11.52-7.708-18.958l25.306-147.571
	c2.438-14.24-2.279-28.774-12.623-38.848L30.392,351.013c-5.404-5.27-7.243-12.696-4.902-19.865
	c2.329-7.181,8.174-12.107,15.637-13.198l148.171-21.531c14.301-2.071,26.667-11.042,33.051-24.007l66.261-134.274
	c3.333-6.765,9.841-10.797,17.377-10.797c7.549,0,14.043,4.032,17.389,10.797l66.262,134.274
	c6.385,12.966,18.737,21.936,33.038,24.007l148.185,21.531c7.463,1.091,13.309,6.017,15.637,13.198
	c2.328,7.169,0.502,14.596-4.902,19.865L474.38,455.521C464.037,465.606,459.318,480.129,461.77,494.381z"/>
</svg>
