<?xml version="1.0" encoding="utf-8"?>
<!-- Generator: Adobe Illustrator 16.0.3, SVG Export Plug-In . SVG Version: 6.00 Build 0)  -->
<!DOCTYPE svg PUBLIC "-//W3C//DTD SVG 1.1//EN" "http://www.w3.org/Graphics/SVG/1.1/DTD/svg11.dtd">
<svg version="1.1" id="Capa_1" xmlns="http://www.w3.org/2000/svg" xmlns:xlink="http://www.w3.org/1999/xlink" x="0px" y="0px"
	 width="612px" height="792px" viewBox="0 0 612 792" enable-background="new 0 0 612 792" xml:space="preserve">
<path fill="#F385A8" d="M598.716,368.549c12.047-11.74,16.299-28.97,11.103-44.987c-5.208-16.017-18.773-27.451-35.44-29.877
	l-148.184-21.532c-6.312-0.919-11.765-4.877-14.583-10.6l-66.249-134.263c-7.438-15.085-22.536-24.46-39.362-24.46
	c-16.813,0-31.911,9.375-39.35,24.46l-66.261,134.275c-2.819,5.723-8.284,9.681-14.596,10.6L37.61,293.698
	c-16.654,2.414-30.232,13.86-35.441,29.877c-5.196,16.017-0.943,33.247,11.103,44.987L120.488,473.07
	c4.571,4.46,6.667,10.882,5.588,17.156l-25.294,147.571c-2.243,12.99,1.164,25.624,9.571,35.588
	c13.063,15.526,35.87,20.257,54.104,10.674l132.522-69.681c5.539-2.904,12.512-2.88,18.039,0l132.534,69.681
	c6.446,3.395,13.321,5.109,20.417,5.109c12.953,0,25.232-5.76,33.676-15.783c8.419-9.964,11.813-22.623,9.571-35.588
	l-25.307-147.571c-1.078-6.287,1.018-12.696,5.589-17.156L598.716,368.549z"/>
</svg>
