<svg xmlns="http://www.w3.org/2000/svg" width="28" height="28" viewBox="0 0 28 28"><defs><style>.a{fill:#1a1a1a;opacity:0.75;}</style></defs><path class="a" d="M19,5A14,14,0,0,0,6.369,25.036a4.664,4.664,0,1,0,6.6,6.6A14,14,0,1,0,19,5ZM9.667,31.756a3.422,3.422,0,1,1,3.422-3.422A3.424,3.424,0,0,1,9.667,31.756Zm9.333,0a12.7,12.7,0,0,1-5.267-1.142,4.609,4.609,0,0,0,.6-2.28,4.672,4.672,0,0,0-4.667-4.667,4.609,4.609,0,0,0-2.28.6A12.753,12.753,0,1,1,19,31.756Zm2.066-12.612a3.111,3.111,0,1,0-4.132,0,4.984,4.984,0,0,0-2.912,4.524.624.624,0,0,0,.622.622h8.711a.624.624,0,0,0,.622-.622A4.984,4.984,0,0,0,21.066,19.143ZM19,14.956a1.867,1.867,0,1,1-1.867,1.867A1.868,1.868,0,0,1,19,14.956Zm-3.68,8.089a3.733,3.733,0,0,1,7.361,0Zm-3.475,5.289a.624.624,0,0,1-.622.622h-.933v.933a.622.622,0,1,1-1.244,0v-.933H8.111a.622.622,0,1,1,0-1.244h.933v-.933a.622.622,0,1,1,1.244,0v.933h.933A.624.624,0,0,1,11.844,28.333Z" transform="translate(-5 -5)"/></svg>