<svg xmlns="http://www.w3.org/2000/svg" width="21" height="23.076" viewBox="0 0 21 23.076"><defs><style>.a{fill:#fff;stroke:#fff;stroke-width:0.5px;}</style></defs><g transform="translate(0.25 0.25)"><path class="a" d="M26.656,20.788a3.825,3.825,0,0,0-3.024,1.486l-6.227-3.613a3.91,3.91,0,0,0,0-2.947L23.632,12.1a3.832,3.832,0,1,0-.82-2.358,3.9,3.9,0,0,0,.282,1.461l-6.227,3.639a3.844,3.844,0,1,0,0,4.715l6.227,3.613a3.9,3.9,0,0,0-.282,1.461,3.844,3.844,0,1,0,3.844-3.844Zm0-13.838a2.819,2.819,0,1,1-2.819,2.819A2.811,2.811,0,0,1,26.656,6.951ZM13.844,20.019A2.819,2.819,0,1,1,16.663,17.2,2.811,2.811,0,0,1,13.844,20.019Zm12.813,7.431a2.819,2.819,0,1,1,2.819-2.819A2.811,2.811,0,0,1,26.656,27.451Z" transform="translate(-10 -5.9)"/></g></svg>