<svg xmlns="http://www.w3.org/2000/svg" width="27.996" height="28.003" viewBox="0 0 27.996 28.003">
  <g id="SVG" transform="translate(-2545 -1583)">
    <path id="Path_1372" data-name="Path 1372" d="M5,0c2.769-.88,6.318,1.831,5,5S7.539,9.718,5,10A5,5,0,0,1,0,5C.555,2.048,2.231.88,5,0Z" transform="translate(2545 1601)" fill="#fd3398"/>
    <circle id="Ellipse_1" data-name="Ellipse 1" cx="13" cy="13" r="13" transform="translate(2546 1584)" fill="#fd3398"/>
    <path id="icn_outline_follow" d="M19,5A14,14,0,0,0,6.369,25.036a4.667,4.667,0,0,0,6.6,6.6A14,14,0,1,0,19,5ZM9.667,31.756a3.422,3.422,0,1,1,3.422-3.422,3.422,3.422,0,0,1-3.422,3.422Zm9.333,0a12.7,12.7,0,0,1-5.267-1.142,4.609,4.609,0,0,0,.6-2.28,4.672,4.672,0,0,0-4.667-4.667,4.609,4.609,0,0,0-2.28.6A12.753,12.753,0,1,1,19,31.756Zm2.066-12.612a3.111,3.111,0,1,0-4.132,0,4.984,4.984,0,0,0-2.912,4.524.624.624,0,0,0,.622.622h8.711a.624.624,0,0,0,.622-.622,4.984,4.984,0,0,0-2.911-4.525ZM19,14.956a1.867,1.867,0,1,1-1.867,1.867A1.867,1.867,0,0,1,19,14.956Zm-3.68,8.089a3.733,3.733,0,0,1,7.361,0Zm-3.475,5.289a.624.624,0,0,1-.622.622H10.29v.933a.622.622,0,0,1-1.244,0v-.933H8.111a.622.622,0,1,1,0-1.244h.933v-.933a.622.622,0,1,1,1.244,0v.933h.933a.624.624,0,0,1,.623.621Z" transform="translate(2539.999 1578)" fill="#fff"/>
  </g>
</svg>
