<svg xmlns="http://www.w3.org/2000/svg" width="27.598" height="27.597" viewBox="0 0 27.598 27.597"><defs><style>.a{fill:none;stroke:#fff;stroke-miterlimit:10;stroke-width:2px;}</style></defs><g transform="translate(1 1)"><path class="a" d="M648.913,1251.564a12.8,12.8,0,0,1-12.8,12.8h0a12.8,12.8,0,0,1-12.8-12.8h0a12.8,12.8,0,0,1,12.8-12.8h0a12.8,12.8,0,0,1,12.8,12.8Z" transform="translate(-623.315 -1238.764)"/><path class="a" d="M647.566,1254.291a5.122,5.122,0,0,1-5.123,5.121h0a5.124,5.124,0,0,1-5.124-5.121h0a5.123,5.123,0,0,1,5.124-5.124h0a5.118,5.118,0,0,1,5.123,5.124Z" transform="translate(-629.615 -1243.444)"/><path class="a" d="M628.621,1272.754a12.341,12.341,0,0,1,9.911-4.972h0a12.335,12.335,0,0,1,9.88,4.936" transform="translate(-625.702 -1251.817)"/></g></svg>