<svg xmlns="http://www.w3.org/2000/svg" width="611.999" height="434.323" viewBox="0 0 611.999 434.323">
  <g id="list" transform="translate(0 -88.839)">
    <g id="Group_9" data-name="Group 9">
      <g id="_x33__32_">
        <g id="Group_8" data-name="Group 8">
          <path id="Path_42" data-name="Path 42" d="M59.226,88.839a59.225,59.225,0,1,0,59.226,59.225A59.221,59.221,0,0,0,59.226,88.839Zm0,157.935A59.226,59.226,0,1,0,118.452,306,59.222,59.222,0,0,0,59.226,246.774Zm0,157.936a59.226,59.226,0,1,0,59.226,59.226A59.222,59.222,0,0,0,59.226,404.71ZM197.419,187.548h375.1a39.484,39.484,0,1,0,0-78.968h-375.1a39.484,39.484,0,1,0,0,78.968Zm375.1,78.968h-375.1a39.484,39.484,0,1,0,0,78.968h375.1a39.484,39.484,0,0,0,0-78.968Zm0,157.935h-375.1a39.484,39.484,0,1,0,0,78.967h375.1a39.484,39.484,0,1,0,0-78.967Z" fill="#fd3398"/>
        </g>
      </g>
    </g>
  </g>
</svg>
