<svg xmlns="http://www.w3.org/2000/svg" width="64" height="64" viewBox="0 0 64 64">
  <path id="Path_281" data-name="Path 281" d="M61.458,27.344H59.552a27.6,27.6,0,0,0-4.8-11.539l1.355-1.354a2.55,2.55,0,0,0,0-3.6L53.14,7.885a2.534,2.534,0,0,0-3.594,0L48.184,9.242A27.611,27.611,0,0,0,36.643,4.455V2.542A2.545,2.545,0,0,0,34.1,0H29.9a2.545,2.545,0,0,0-2.548,2.542V4.455A27.6,27.6,0,0,0,15.811,9.247L14.456,7.89a2.543,2.543,0,0,0-3.6,0L7.883,10.86a2.542,2.542,0,0,0,0,3.6l1.36,1.36a27.651,27.651,0,0,0-4.79,11.536H2.54A2.542,2.542,0,0,0,0,29.9v4.2a2.543,2.543,0,0,0,2.54,2.545H4.453a27.64,27.64,0,0,0,4.79,11.539l-1.36,1.357a2.542,2.542,0,0,0,0,3.6l2.971,2.97a2.543,2.543,0,0,0,3.594,0l1.363-1.357a27.643,27.643,0,0,0,11.538,4.792v1.913A2.546,2.546,0,0,0,29.9,64h4.2a2.545,2.545,0,0,0,2.542-2.542V59.545a27.642,27.642,0,0,0,11.544-4.792l1.36,1.357a2.54,2.54,0,0,0,3.594,0l2.971-2.97a2.548,2.548,0,0,0,0-3.6l-1.355-1.352a27.625,27.625,0,0,0,4.8-11.542H61.46A2.542,2.542,0,0,0,64,34.105V29.895a2.545,2.545,0,0,0-2.542-2.55ZM32,51.082a19.111,19.111,0,1,1,13.492-5.6A19.095,19.095,0,0,1,32,51.082Z" fill="#fd3398"/>
</svg>
