<svg xmlns="http://www.w3.org/2000/svg" width="64" height="64" viewBox="0 0 64 64"><defs><style>.a{fill:none;}.b{fill:#1a1a1a;fill-rule:evenodd;}</style></defs><rect class="a" width="64" height="64"/><path class="b" d="M1715.272,837.964a18.008,18.008,0,0,0-22.544,0,2,2,0,0,0,2.508,3.12,13.995,13.995,0,0,1,17.528,0,2,2,0,0,0,2.508-3.12Z" transform="translate(-1671.99 -802)"/><path class="b" d="M3000.781,1467.606a29.993,29.993,0,0,0-37.562,0,2,2,0,0,0,2.5,3.122,26.012,26.012,0,0,1,32.564,0,2,2,0,0,0,2.5-3.122Z" transform="translate(-2949.99 -1441)"/><path class="b" d="M4286.3,2097.25a42.013,42.013,0,0,0-52.6,0,2,2,0,0,0,2.51,3.12,37.994,37.994,0,0,1,47.58,0,2,2,0,0,0,2.51-3.12Z" transform="translate(-4227.99 -2080)"/><path class="b" d="M506.586,207.414l8,8a2,2,0,0,0,2.828-2.828l-8-8a2,2,0,0,0-2.828,2.828Z" transform="translate(-480 -160)"/><path class="b" d="M506.586,207.414l8,8a2,2,0,0,0,2.828-2.828l-8-8a2,2,0,0,0-2.828,2.828Z" transform="translate(-178 562) rotate(-90)"/></svg>