<svg xmlns="http://www.w3.org/2000/svg" width="43.958" height="50.843" viewBox="0 0 43.958 50.843">
  <g id="refresh" transform="translate(8.958 -1.266) rotate(19)">
    <path id="Path_9" data-name="Path 9" d="M21,4.646a16.2,16.2,0,0,1,8.037,2.121L26.984,8.821a1.821,1.821,0,0,0,1.285,3.108h7.272a1.819,1.819,0,0,0,1.818-1.821V2.825a1.818,1.818,0,0,0-3.1-1.287L31.692,4.1A20,20,0,0,0,1,21.032a1.818,1.818,0,1,0,3.636,0A16.392,16.392,0,0,1,21,4.646Z" transform="translate(0)"/>
    <path id="Path_10" data-name="Path 10" d="M37.541,11a1.819,1.819,0,0,0-1.818,1.821A16.392,16.392,0,0,1,19.361,29.207a16.161,16.161,0,0,1-8.035-2.123l2.049-2.052a1.821,1.821,0,0,0-1.285-3.108H4.818A1.819,1.819,0,0,0,3,23.745v7.283A1.821,1.821,0,0,0,4.122,32.71a1.792,1.792,0,0,0,.7.138A1.816,1.816,0,0,0,6.1,32.315l2.565-2.562a19.793,19.793,0,0,0,10.693,3.1,20.036,20.036,0,0,0,20-20.028A1.819,1.819,0,0,0,37.541,11Z" transform="translate(1.641 8.146)"/>
  </g>
</svg>
