<?xml version="1.0" encoding="utf-8"?>
<!-- Generator: Adobe Illustrator 16.0.3, SVG Export Plug-In . SVG Version: 6.00 Build 0)  -->
<!DOCTYPE svg PUBLIC "-//W3C//DTD SVG 1.1//EN" "http://www.w3.org/Graphics/SVG/1.1/DTD/svg11.dtd">
<svg version="1.1" id="Capa_1" xmlns="http://www.w3.org/2000/svg" xmlns:xlink="http://www.w3.org/1999/xlink" x="0px" y="0px"
	 width="612px" height="612px" viewBox="0 90 612 612" enable-background="new 0 90 612 612" xml:space="preserve">
<g>
	<g>
		<path fill="#F385A8" d="M599.76,362.34l-55.08-12.24c-6.12-30.6-15.3-58.14-30.6-82.62c-3.061-6.12-3.061-12.24,0-15.3
			l24.479-39.78c3.061-6.12,3.061-12.24-3.06-18.36l-27.54-27.54c-6.12-6.12-12.24-6.12-18.36-3.06l-39.779,24.48
			c-6.12,3.06-12.24,3.06-15.301,0c-21.42-12.24-45.899-24.48-73.439-30.6c-6.12,0-9.18-6.12-12.24-12.24l-12.24-45.9
			c0-3.06-6.119-9.18-12.239-9.18h-36.72c-6.12,0-12.24,6.12-15.3,12.24l-12.24,52.02c-30.6,6.12-58.14,15.3-82.62,33.66
			c-6.12,3.06-12.24,3.06-15.3,0l-39.78-24.48c-6.12-3.06-15.3-3.06-18.36,3.06L76.5,194.04c-6.12,3.06-6.12,12.24-3.06,18.36
			l24.48,39.78c3.06,6.12,3.06,12.24,0,15.3c-15.3,24.48-27.54,52.02-30.6,82.62l-55.08,12.24C6.12,365.4,0,371.52,0,377.64v36.72
			c0,6.12,6.12,12.239,12.24,15.3l55.08,12.24c6.12,30.6,15.3,58.14,33.66,82.619c3.06,6.12,3.06,12.24,0,15.301L73.44,579.6
			c-3.06,6.12-3.06,12.24,3.06,18.36l27.54,27.54c6.12,6.12,12.24,6.12,18.36,3.06l39.78-24.479c6.12,0,9.18,0,15.3,0
			c24.48,15.3,52.02,27.54,82.62,30.6l12.24,55.08c3.06,6.12,9.18,12.24,15.3,12.24h36.72c6.12,0,12.239-6.12,15.3-12.24
			l12.24-45.899c0-6.12,6.119-9.181,12.239-12.24c30.601-6.12,55.08-18.36,79.561-33.66l48.96,27.54
			c6.12,3.06,12.24,3.06,18.359-3.06l27.54-27.54c6.12-6.12,6.12-12.24,3.061-18.36l-24.48-39.78c-3.06-6.12-3.06-12.24,0-15.3
			c12.24-21.42,24.48-45.9,30.601-73.44c0-6.119,6.12-9.18,12.24-12.239l45.899-12.24c0,3.06,6.12-3.06,6.12-9.18v-36.72
			C612,371.52,605.88,365.4,599.76,362.34z M394.74,484.74C293.76,561.24,183.6,490.86,183.6,396c0-67.32,55.08-122.4,122.4-122.4
			C400.86,273.6,471.24,383.76,394.74,484.74z"/>
	</g>
</g>
</svg>
