<?xml version="1.0"?>
<svg xmlns="http://www.w3.org/2000/svg" xmlns:xlink="http://www.w3.org/1999/xlink" version="1.1" id="Capa_1" x="0px" y="0px" viewBox="0 0 371.175 371.175" style="enable-background:new 0 0 371.175 371.175;" xml:space="preserve" width="512px" height="512px"><g><g>
	<g>
		<path d="M368.453,169.534l-87.452-92.833c-19.257-20.44-50.145-24.722-74.235-10.289c-12.267,7.331-27.519,7.533-39.976,0.532    l-1.843-1.04c-23.71-13.362-53.453-9.025-72.36,10.552L2.806,169.445c-3.319,3.437-3.743,8.743-1.011,12.663l65.657,94.244    c21.753,31.329,61.561,44.561,97.741,32.489l1.19-0.4c13.546-4.465,28.169-4.456,41.71,0.026l0.057,0.019    c8.703,2.897,17.816,4.372,26.989,4.369c28.638,0.009,55.42-14.174,71.507-37.867l62.815-93    C372.079,178.112,371.661,172.938,368.453,169.534z M290.072,263.798c-16.641,24.509-47.524,35.001-75.65,25.7l-0.052-0.017    c-17.626-5.823-36.657-5.83-54.287-0.018l-1.19,0.395c-27.773,9.085-58.223-1.036-75.031-24.94L32.01,190.49l31.688,5.833    l53.289,10.735c5.026,1.012,9.884,2.725,14.434,5.087l15.939,8.274c24.951,13.038,55.12,10.898,77.981-5.531l0.051-0.036    c7.692-5.499,16.673-8.92,26.074-9.932l65.3-6.993c4.228-0.454,8.41-1.267,12.5-2.428l7.846-2.231l0.73-0.207L290.072,263.798z     M123.809,188.096l3.415-0.5c6.85-1.002,13.528-2.949,19.843-5.787l15.029-6.754c15.601-6.959,33.546-6.294,48.589,1.8    l0.912,0.494c7.849,4.257,16.398,7.07,25.241,8.306l4.661,0.652c-9.97,2.157-19.396,6.326-27.7,12.251l-0.044,0.032    c-16.754,12.063-38.881,13.642-57.178,4.08l-15.939-8.274C135.302,191.627,129.652,189.511,123.809,188.096z M331.645,174.027    c-7.344,2.098-15.047,2.628-22.609,1.557l-69.414-9.741c-6.481-0.904-12.748-2.966-18.5-6.086l-0.912-0.494    c-20.531-11.046-45.021-11.953-66.313-2.456l-15.029,6.753c-4.627,2.08-9.52,3.507-14.54,4.241l-49.594,7.255    c-5.932,0.871-11.966,0.759-17.862-0.329l-26.635-4.9l76.742-79.478c12.579-13.027,32.37-15.913,48.146-7.023l1.843,1.039    c18.721,10.522,41.643,10.217,60.077-0.8c16.049-9.514,36.543-6.674,49.4,6.846l75.9,80.572L331.645,174.027z" data-original="#000000" class="active-path" data-old_color="#000000" fill="#FFFFFF"/>
	</g>
</g></g> </svg>
