<svg xmlns="http://www.w3.org/2000/svg" width="60" height="60" viewBox="0 0 60 60">
  <g id="_2" data-name="2" transform="translate(0.413 0.413)">
    <rect id="Rectangle_2" data-name="Rectangle 2" width="60" height="60" rx="30" transform="translate(-0.413 -0.413)" fill="#1a1a1a"/>
    <path id="Path_7" data-name="Path 7" d="M51.479,30.132c-.619-1.916.3-3.652.559-4.992h-.1a.8.8,0,0,0,0-.093c-2.178.058-3.876.9-4.356,2.515q-.224,1.556-.445,3.112c-.469,1.249-1.757,2.251-2.133,3.553a1.136,1.136,0,0,0-.155.235c.079-.359.175-.71.224-1.069a17.847,17.847,0,0,0,0-4.2,15.332,15.332,0,0,0-.67-2.851c-.05-.17-.093-.537-.235-.659-.353-.3-1.18.036-1.5.209a6.667,6.667,0,0,0-1.628,1.326,4.571,4.571,0,0,0-1.029,1.669,16.746,16.746,0,0,1-.85,1.541c-.208.388-.338.99-.759,1.209-.084.042-.033-.406-.036-.381.02-.24.068-.567.089-.84a10.559,10.559,0,0,1,.352-2.05c.1-.366.581-1.816.373-2.089-.19-.253-1.4-.241-1.691-.122a4.976,4.976,0,0,0-1.384.923,7.223,7.223,0,0,0-1.612,2.406,8.251,8.251,0,0,0-.581,2.024,7.49,7.49,0,0,1-.284,1.873A28.153,28.153,0,0,1,31.9,36.154c-.5.714-2.066,2.117-2.487,1.785-.3-.24-.259-1.112-.263-1.437a10.008,10.008,0,0,1,.177-1.843c.214-1.217.29-2.453.463-3.675.163-1.144.436-2.267.7-3.39.133-.558.3-.919-.415-1.045a3.976,3.976,0,0,0-2.053.2A4.369,4.369,0,0,0,25.9,29.681a27.938,27.938,0,0,0-.95,4.732c-.193,1.4-2.681,4.408-3.359,4.491s-.726-.762-.843-1.209a11.918,11.918,0,0,1-.232-4.03c.139-1.6.04-3.479.7-4.967a33.477,33.477,0,0,1,1.841-2.98,33.25,33.25,0,0,0,1.935-5.181c.084-.491.184-.981.263-1.474a6.881,6.881,0,0,0-.024-3,3.41,3.41,0,0,0-1.275-1.921,2.455,2.455,0,0,0-1.815.058,5.2,5.2,0,0,0-3.618,2.312,41.981,41.981,0,0,0-1.782,5.44c-.464,2.108-.825,8.12-.916,9.206a9.593,9.593,0,0,1-.567,2.695c-.59,1.543-5.808,6.161-6.1,6.754s-.107.678.121.651c1.245-.148,5.677-5.206,6.014-5.267.761-.138.988,1.719,1.158,2.174a3.742,3.742,0,0,0,.866,1.4,3.817,3.817,0,0,0,4.616.635c1.452-.8,2.657-3.2,2.824-2.83.308.4.139,1.374.45,1.765.413,1.021,2.113,1.564,3.543.987,2.033-.818,4.076-3.277,4.719-4.069-.079.777-.207,1.558-.309,2.315-.139,1.023-.194,2.022-.243,3.051s-.29,2.072-.43,3.1c-.173,1.275-.5,2.527-.628,3.808a6.983,6.983,0,0,0,.152,2.443,5.974,5.974,0,0,0,1.069,1.857,1.738,1.738,0,0,0,.585.6,1.76,1.76,0,0,0,.8.258c.553.032.831-.127.851-.675a26.764,26.764,0,0,1,.8-5.212q.5-2.19.921-4.4.21-1.113.394-2.228c.1-.631.038-1.255.1-1.886.065-.714.233-1.41.3-2.122a8.063,8.063,0,0,1,.387-2.227,14.073,14.073,0,0,1,1.08-2.139c.26-.431.717-1.46,1.25-1.622.706-.216.441,2.921.441,3.305,0,1.456.165,3.33-.923,4.492-.4.425-.755.885-1.144,1.319a1.2,1.2,0,0,0-.363.526c-.017.083.065.869,1.1.513a6.751,6.751,0,0,0,3.113-2.407c.306-.4.643-.78.967-1.17.62-.75,1.174-1.477,1.737-2.277q.467-.665.905-1.348a9.829,9.829,0,0,1,.844-1.384c.671.05.77.727.988,1.222.209.476.515.915.763,1.373a7.019,7.019,0,0,1,1.077,3.228c0,.73-.218,1.712-1.12,1.807a1.539,1.539,0,0,1-.846-.066,1.523,1.523,0,0,1-.679-.5c-.2-.355.042-.852-.142-1.158-.134-.222.042-.068-.2-.18-1.355-.575-.914,1.856-.47,2.457,2.2,2.986,5.9-.323,6.926-2.146C55.227,35.551,52.295,32.653,51.479,30.132ZM23.312,15.393c.62-.037.914,2.017.694,3.162-.581,3.018-2.01,7-2.372,7.032s-.062,0-.1,0c-.062-2.8,1.151-10.16,1.774-10.2Z" transform="translate(-2.152 -3.425)" fill="#fd3398"/>
    <path id="Path_8" data-name="Path 8" d="M34.861,26.79a3.948,3.948,0,0,0,1.457-.649,3.9,3.9,0,0,0,1.076-1.169,1.895,1.895,0,0,0-.354-1.6,2.223,2.223,0,0,0-2.262-.479,2.631,2.631,0,0,0-1.208.621,2.591,2.591,0,0,0-.73,1.137,1.7,1.7,0,0,0,.4,1.637,1.737,1.737,0,0,0,1.623.5Z" transform="translate(-8.201 -5.655)" fill="#fd3398"/>
  </g>
</svg>
