<svg xmlns="http://www.w3.org/2000/svg" width="37" height="31" viewBox="0 0 37 31">
  <g id="lips-logo-icon" transform="translate(-9 -14)">
    <path id="Path_5" data-name="Path 5" d="M43.9,26.661c-.509-1.5.246-2.866.459-3.918h-.078a.6.6,0,0,0,0-.073c-1.789.046-3.184.708-3.578,1.974q-.184,1.221-.366,2.442c-.385.98-1.443,1.767-1.752,2.789a.889.889,0,0,0-.127.184c.065-.282.144-.557.184-.839a13.387,13.387,0,0,0,0-3.3,11.586,11.586,0,0,0-.55-2.238c-.041-.134-.076-.422-.193-.517-.29-.235-.969.028-1.233.164a5.435,5.435,0,0,0-1.338,1.041,3.565,3.565,0,0,0-.845,1.31,12.978,12.978,0,0,1-.7,1.21c-.171.3-.278.777-.623.949-.069.033-.027-.319-.029-.3.016-.188.055-.445.073-.659a7.951,7.951,0,0,1,.289-1.609c.084-.287.477-1.426.307-1.639-.156-.2-1.15-.189-1.389-.1a4.106,4.106,0,0,0-1.137.724,5.66,5.66,0,0,0-1.324,1.889,6.256,6.256,0,0,0-.477,1.589,5.637,5.637,0,0,1-.233,1.47,21.96,21.96,0,0,1-1.417,2.18c-.407.56-1.7,1.661-2.043,1.4-.249-.188-.213-.872-.216-1.128a7.516,7.516,0,0,1,.146-1.447c.176-.955.239-1.925.38-2.885.134-.9.358-1.779.575-2.661.109-.438.246-.721-.341-.821A3.409,3.409,0,0,0,24.63,24a3.443,3.443,0,0,0-1.746,2.3,21.07,21.07,0,0,0-.781,3.714c-.159,1.1-2.2,3.459-2.759,3.525s-.6-.6-.692-.949a8.948,8.948,0,0,1-.19-3.163,12.034,12.034,0,0,1,.573-3.9A26.109,26.109,0,0,1,20.546,23.2a25.375,25.375,0,0,0,1.59-4.067c.069-.386.151-.77.216-1.157a5.165,5.165,0,0,0-.02-2.351,2.672,2.672,0,0,0-1.047-1.507,2.1,2.1,0,0,0-1.491.046,4.3,4.3,0,0,0-2.972,1.814,31.921,31.921,0,0,0-1.463,4.27c-.381,1.655-.678,6.373-.753,7.225a7.24,7.24,0,0,1-.466,2.115c-.485,1.211-4.771,4.835-5.015,5.3s-.088.532.1.511c1.023-.116,4.664-4.086,4.94-4.134.625-.108.812,1.349.951,1.706a2.919,2.919,0,0,0,.711,1.1,3.132,3.132,0,0,0,1.141.707,3.276,3.276,0,0,0,1.351.178,3.24,3.24,0,0,0,1.3-.386c1.193-.625,2.183-2.508,2.32-2.221.253.312.114,1.078.37,1.385.339.8,1.736,1.228,2.911.775A11.768,11.768,0,0,0,29.1,31.312c-.065.61-.17,1.223-.254,1.817-.114.8-.159,1.587-.2,2.395s-.239,1.626-.354,2.437c-.143,1-.409,1.983-.516,2.989a5.243,5.243,0,0,0,.125,1.917,4.642,4.642,0,0,0,.878,1.457,1.4,1.4,0,0,0,.481.469,1.493,1.493,0,0,0,.657.2c.454.025.683-.1.7-.53a20.141,20.141,0,0,1,.66-4.09q.413-1.719.757-3.454.172-.874.324-1.748c.086-.5.032-.985.078-1.48.054-.56.191-1.106.244-1.665a6.074,6.074,0,0,1,.318-1.748A10.863,10.863,0,0,1,33.88,28.6c.214-.338.589-1.146,1.027-1.273.58-.169.363,2.292.363,2.594,0,1.143.135,2.614-.759,3.526-.327.333-.62.695-.94,1.035a.943.943,0,0,0-.3.413c-.014.065.054.682.9.4A5.52,5.52,0,0,0,36.73,33.41c.251-.316.528-.612.794-.918.509-.589.964-1.159,1.427-1.787q.383-.522.744-1.058a7.66,7.66,0,0,1,.694-1.086c.552.039.632.571.812.959s.423.718.627,1.078a5.345,5.345,0,0,1,.884,2.534c0,.573-.179,1.344-.92,1.418A1.32,1.32,0,0,1,41.1,34.5a1.249,1.249,0,0,1-.558-.4c-.163-.279.035-.669-.116-.909-.11-.174.035-.053-.161-.141-1.113-.451-.751,1.457-.386,1.928,1.811,2.343,4.847-.253,5.689-1.685C46.975,30.914,44.565,28.64,43.9,26.661ZM20.757,15.093c.509-.029.751,1.583.57,2.481-.477,2.369-1.651,5.495-1.949,5.519s-.051,0-.078,0c-.051-2.2.945-7.974,1.458-8Z" transform="translate(0)" fill="#fd3398"/>
    <path id="Path_6" data-name="Path 6" d="M34.507,26.107a3.279,3.279,0,0,0,1.21-.539,3.242,3.242,0,0,0,.893-.971,1.573,1.573,0,0,0-.294-1.331,1.846,1.846,0,0,0-1.879-.4,2.184,2.184,0,0,0-1,.516,2.151,2.151,0,0,0-.606.944,1.408,1.408,0,0,0,.33,1.359,1.442,1.442,0,0,0,1.348.419Z" transform="translate(-9.232 -3.67)" fill="#fd3398"/>
  </g>
</svg>
