<svg xmlns="http://www.w3.org/2000/svg" width="120.813" height="105.943" viewBox="0 0 120.813 105.943">
  <g id="lips-logo-icon" transform="translate(-9 -14)">
    <path id="Path_5" data-name="Path 5" d="M122.942,57.269c-1.661-5.14.8-9.795,1.5-13.389h-.255a2.16,2.16,0,0,0-.01-.251c-5.842.156-10.4,2.419-11.683,6.746q-.6,4.173-1.194,8.347c-1.258,3.35-4.712,6.038-5.721,9.531a3.048,3.048,0,0,0-.415.63c.212-.964.469-1.9.6-2.868a47.869,47.869,0,0,0-.01-11.279,41.126,41.126,0,0,0-1.8-7.648c-.134-.457-.249-1.442-.629-1.767-.946-.8-3.164.1-4.025.561a17.883,17.883,0,0,0-4.368,3.558,12.259,12.259,0,0,0-2.759,4.475A44.915,44.915,0,0,1,89.9,58.05c-.557,1.041-.908,2.656-2.035,3.244-.224.114-.09-1.089-.1-1.022.053-.644.181-1.521.24-2.253a28.321,28.321,0,0,1,.944-5.5c.275-.981,1.558-4.872,1-5.6-.51-.679-3.754-.646-4.535-.328A13.346,13.346,0,0,0,81.7,49.065a19.374,19.374,0,0,0-4.323,6.455,22.131,22.131,0,0,0-1.558,5.429,20.09,20.09,0,0,1-.761,5.025,75.519,75.519,0,0,1-4.627,7.451c-1.33,1.914-5.542,5.678-6.671,4.787-.814-.644-.7-2.982-.7-3.855a26.845,26.845,0,0,1,.475-4.944c.574-3.265.779-6.58,1.242-9.858.436-3.068,1.168-6.081,1.877-9.093.356-1.5.8-2.465-1.112-2.8a10.664,10.664,0,0,0-5.507.53c-3.188,1.3-4.728,4.836-5.7,7.873a74.937,74.937,0,0,0-2.549,12.691c-.518,3.747-7.191,11.822-9.01,12.046s-1.947-2.045-2.261-3.244a31.968,31.968,0,0,1-.621-10.808c.374-4.283.107-9.33,1.869-13.324A89.81,89.81,0,0,1,46.7,45.43a89.185,89.185,0,0,0,5.191-13.9c.226-1.318.493-2.631.7-3.953a18.455,18.455,0,0,0-.064-8.035,9.146,9.146,0,0,0-3.419-5.152,6.585,6.585,0,0,0-4.868.156c-4.021.985-7.559,2.479-9.7,6.2A112.6,112.6,0,0,0,29.762,35.34C28.517,41,27.548,57.119,27.3,60.033a25.731,25.731,0,0,1-1.521,7.228C24.2,71.4,10.205,83.786,9.409,85.378s-.288,1.819.325,1.746C13.074,86.727,24.962,73.16,25.865,73c2.041-.37,2.65,4.61,3.106,5.83a10.038,10.038,0,0,0,2.323,3.759,10.239,10.239,0,0,0,12.383,1.7c3.894-2.137,7.127-8.573,7.575-7.592.826,1.066.372,3.685,1.207,4.734,1.108,2.739,5.668,4.2,9.5,2.648C67.416,81.887,72.9,75.29,74.621,73.166c-.212,2.085-.555,4.179-.83,6.21-.372,2.744-.52,5.424-.652,8.183-.134,2.795-.779,5.558-1.155,8.328-.465,3.419-1.334,6.779-1.684,10.215a18.731,18.731,0,0,0,.409,6.553,16.025,16.025,0,0,0,2.866,4.98,4.663,4.663,0,0,0,1.569,1.6,4.72,4.72,0,0,0,2.144.693c1.484.087,2.23-.341,2.282-1.812a71.789,71.789,0,0,1,2.154-13.979q1.35-5.875,2.471-11.8.563-2.986,1.057-5.975c.28-1.692.1-3.365.255-5.059.175-1.914.625-3.781.8-5.691a21.626,21.626,0,0,1,1.038-5.975,37.748,37.748,0,0,1,2.9-5.738c.7-1.156,1.922-3.916,3.353-4.35,1.893-.578,1.184,7.835,1.184,8.866,0,3.9.442,8.933-2.477,12.05-1.067,1.139-2.025,2.375-3.069,3.537a3.22,3.22,0,0,0-.974,1.411c-.047.224.175,2.33,2.938,1.376a18.109,18.109,0,0,0,8.35-6.457c.82-1.081,1.725-2.091,2.594-3.138,1.663-2.012,3.149-3.961,4.66-6.108q1.252-1.783,2.428-3.616a26.368,26.368,0,0,1,2.265-3.712c1.8.135,2.064,1.95,2.65,3.277.561,1.278,1.38,2.454,2.047,3.683a18.826,18.826,0,0,1,2.888,8.66c0,1.958-.584,4.593-3,4.847a4.127,4.127,0,0,1-2.268-.178,4.086,4.086,0,0,1-1.821-1.35c-.534-.952.113-2.286-.38-3.1-.358-.6.113-.181-.526-.482-3.636-1.542-2.452,4.978-1.262,6.59,5.912,8.008,15.827-.865,18.577-5.757C133,71.805,125.128,64.032,122.942,57.269ZM47.388,17.736c1.663-.1,2.452,5.41,1.862,8.48-1.558,8.095-5.392,18.778-6.364,18.861s-.167,0-.255.01c-.167-7.5,3.087-27.253,4.759-27.351Z" fill="#fd3398"/>
    <path id="Path_6" data-name="Path 6" d="M38.373,33.562a10.591,10.591,0,0,0,3.908-1.74,10.472,10.472,0,0,0,2.886-3.136,5.082,5.082,0,0,0-.948-4.3A5.963,5.963,0,0,0,38.151,23.1a7.055,7.055,0,0,0-3.239,1.666,6.949,6.949,0,0,0-1.958,3.05,4.547,4.547,0,0,0,1.066,4.391,4.658,4.658,0,0,0,4.353,1.353Z" transform="translate(23.77 8.763)" fill="#fd3398"/>
  </g>
</svg>
