<svg xmlns="http://www.w3.org/2000/svg" xmlns:xlink="http://www.w3.org/1999/xlink" width="80" height="80" viewBox="0 0 80 80">
  <defs>
    <clipPath id="clip-Icon">
      <rect width="80" height="80"/>
    </clipPath>
  </defs>
  <g id="Icon" clip-path="url(#clip-Icon)">
    <g id="Group_1" data-name="Group 1" transform="translate(0.5 -0.5)">
      <g id="Group_2663" data-name="Group 2663" transform="translate(7.669 12.587)">
        <path id="Path_18" data-name="Path 18" d="M59.781,23.2c-.871-2.756.421-5.252.787-7.179h-.134a1.192,1.192,0,0,0-.005-.134c-3.065.084-5.455,1.3-6.13,3.617q-.315,2.237-.626,4.476c-.66,1.8-2.472,3.238-3,5.11a1.64,1.64,0,0,0-.218.338c.111-.517.246-1.021.316-1.538a26.225,26.225,0,0,0-.005-6.047,22.463,22.463,0,0,0-.943-4.1c-.07-.245-.131-.773-.33-.948-.5-.431-1.66.052-2.112.3A9.425,9.425,0,0,0,45.088,19a6.6,6.6,0,0,0-1.448,2.4,24.224,24.224,0,0,1-1.2,2.217c-.292.558-.476,1.424-1.068,1.739-.117.061-.047-.584-.05-.548.028-.345.1-.815.126-1.208a15.5,15.5,0,0,1,.5-2.948c.144-.526.817-2.612.525-3-.268-.364-1.97-.346-2.379-.176A6.988,6.988,0,0,0,38.145,18.8a10.407,10.407,0,0,0-2.268,3.461,12.074,12.074,0,0,0-.817,2.911,10.985,10.985,0,0,1-.4,2.694,40.624,40.624,0,0,1-2.427,4c-.7,1.026-2.908,3.044-3.5,2.567-.427-.345-.365-1.6-.37-2.067a14.7,14.7,0,0,1,.249-2.651c.3-1.751.409-3.528.652-5.286.229-1.645.613-3.26.985-4.876.187-.8.421-1.322-.583-1.5a5.482,5.482,0,0,0-2.889.284c-1.672.7-2.481,2.593-2.99,4.221a40.973,40.973,0,0,0-1.337,6.805c-.272,2.009-3.773,6.339-4.727,6.459s-1.022-1.1-1.186-1.739a17.509,17.509,0,0,1-.326-5.8c.2-2.3.056-5,.981-7.144a48.364,48.364,0,0,1,2.591-4.285A48.487,48.487,0,0,0,22.5,9.4c.119-.707.258-1.411.37-2.12a10.107,10.107,0,0,0-.034-4.308A4.912,4.912,0,0,0,21.046.21a3.387,3.387,0,0,0-2.554.084c-2.11.528-3.966,1.329-5.092,3.324a61.338,61.338,0,0,0-2.507,7.824C10.24,14.474,9.731,23.12,9.6,24.682a14.057,14.057,0,0,1-.8,3.875c-.831,2.22-8.173,8.86-8.591,9.714s-.151.976.171.936C2.137,39,8.375,31.721,8.849,31.633c1.071-.2,1.39,2.472,1.63,3.126A5.4,5.4,0,0,0,11.7,36.775a5.284,5.284,0,0,0,6.5.914c2.043-1.146,3.739-4.6,3.974-4.071.433.571.2,1.976.633,2.538.581,1.469,2.974,2.25,4.987,1.42,2.861-1.176,5.736-4.713,6.641-5.852-.111,1.118-.291,2.24-.435,3.33-.2,1.472-.273,2.908-.342,4.388-.07,1.5-.409,2.98-.606,4.465-.244,1.833-.7,3.634-.884,5.477a10.257,10.257,0,0,0,.215,3.514,8.643,8.643,0,0,0,1.5,2.67,2.476,2.476,0,0,0,.823.86,2.441,2.441,0,0,0,1.125.372c.778.046,1.17-.183,1.2-.971a39.269,39.269,0,0,1,1.13-7.5q.708-3.15,1.3-6.329.3-1.6.555-3.2c.147-.907.054-1.8.134-2.713.092-1.026.328-2.028.418-3.052a11.831,11.831,0,0,1,.545-3.2,20.423,20.423,0,0,1,1.52-3.077c.366-.62,1.008-2.1,1.759-2.332.993-.31.621,4.2.621,4.754,0,2.094.232,4.79-1.3,6.461-.56.611-1.063,1.273-1.61,1.9a1.727,1.727,0,0,0-.511.756c-.024.12.092,1.249,1.542.738a9.532,9.532,0,0,0,4.381-3.462c.43-.58.905-1.121,1.361-1.682.872-1.079,1.652-2.124,2.445-3.275q.657-.956,1.274-1.939a14.187,14.187,0,0,1,1.188-1.99c.945.072,1.083,1.046,1.39,1.757.294.685.724,1.316,1.074,1.975a10.243,10.243,0,0,1,1.515,4.643c0,1.05-.306,2.463-1.576,2.6a2.123,2.123,0,0,1-1.19-.1,2.148,2.148,0,0,1-.955-.724c-.28-.511.059-1.226-.2-1.665-.188-.319.059-.1-.276-.258-1.907-.827-1.286,2.669-.662,3.533,3.1,4.294,8.3-.464,9.747-3.087C65.056,30.994,60.929,26.827,59.781,23.2ZM20.141,2c.873-.054,1.286,2.9.977,4.547-.817,4.34-2.829,10.069-3.339,10.113s-.088,0-.134.005C17.557,12.645,19.264,2.056,20.142,2Z" transform="translate(0 0)" fill="#fd3398"/>
        <path id="Path_19" data-name="Path 19" d="M28.407,15.385a5.5,5.5,0,0,0,2.051-.933,5.573,5.573,0,0,0,1.514-1.682,2.771,2.771,0,0,0-.5-2.3,3.079,3.079,0,0,0-3.184-.689,3.674,3.674,0,0,0-1.7.894,3.735,3.735,0,0,0-1.027,1.635,2.477,2.477,0,0,0,.559,2.354,2.411,2.411,0,0,0,2.284.725Z" transform="translate(-0.525 -0.198)" fill="#fd3398"/>
      </g>
      <rect id="Rectangle_1561" data-name="Rectangle 1561" width="77" height="77" rx="9.5" transform="translate(1 2)" fill="none" stroke="#fd3398" stroke-width="1"/>
    </g>
  </g>
</svg>
