<?xml version="1.0" encoding="utf-8"?>
<!-- Generator: Adobe Illustrator 16.0.3, SVG Export Plug-In . SVG Version: 6.00 Build 0)  -->
<!DOCTYPE svg PUBLIC "-//W3C//DTD SVG 1.1//EN" "http://www.w3.org/Graphics/SVG/1.1/DTD/svg11.dtd">
<svg version="1.1" id="Capa_1" xmlns="http://www.w3.org/2000/svg" xmlns:xlink="http://www.w3.org/1999/xlink" x="0px" y="0px"
	 width="612px" height="792px" viewBox="0 0 612 792" enable-background="new 0 0 612 792" xml:space="preserve">
<path fill="#999933" d="M306.032,84.5C181.241,84.478,68.733,159.643,20.981,274.936c-47.748,115.293-21.335,248,66.93,336.211
	c120.467,120.472,315.779,120.472,436.24,0c120.47-120.461,120.47-315.773,0-436.242C466.432,116.856,387.894,84.304,306.032,84.5z
	 M460.726,407.378H323.396v144.503c0,7.927-6.425,14.352-14.35,14.352c-7.927,0-14.352-6.425-14.352-14.352V407.378H150.333
	c-7.926,0-14.351-6.424-14.351-14.35c0-7.927,6.424-14.352,14.351-14.352h144.502V241.348c0-7.926,6.432-14.351,14.352-14.351
	c7.926,0,14.351,6.425,14.351,14.351v137.328h137.334c7.921,0.039,14.316,6.498,14.279,14.425
	C475.109,401.027,468.65,407.416,460.726,407.378z"/>
</svg>
