<?xml version="1.0"?>
<svg xmlns="http://www.w3.org/2000/svg" height="512px" viewBox="0 -21 469.33333 469" width="512px"><g><path d="m282.667969 427.703125c-1.367188 0-2.773438-.171875-4.183594-.53125-8.53125-2.304687-13.589844-11.09375-11.285156-19.628906l106.667969-395.519531c2.304687-8.535157 11.050781-13.632813 19.605468-11.285157 8.53125 2.304688 13.589844 11.09375 11.285156 19.625l-106.667968 395.523438c-1.898438 7.125-8.363282 11.816406-15.421875 11.816406zm0 0" data-original="#000000" class="active-path" data-old_color="#000000" fill="#F385A8"/><path d="m80 427.703125c-1.367188 0-2.773438-.171875-4.179688-.53125-8.535156-2.304687-13.589843-11.09375-11.285156-19.628906l106.664063-395.519531c2.304687-8.535157 11.074219-13.632813 19.605469-11.285157 8.535156 2.304688 13.589843 11.09375 11.285156 19.625l-106.664063 395.523438c-1.902343 7.125-8.363281 11.816406-15.425781 11.816406zm0 0" data-original="#000000" class="active-path" data-old_color="#000000" fill="#F385A8"/><path d="m410.667969 320.800781h-394.667969c-8.832031 0-16-7.167969-16-16s7.167969-16 16-16h394.667969c8.832031 0 16 7.167969 16 16s-7.167969 16-16 16zm0 0" data-original="#000000" class="active-path" data-old_color="#000000" fill="#F385A8"/><path d="m453.332031 139.085938h-394.664062c-8.832031 0-16-7.167969-16-16 0-8.832032 7.167969-16 16-16h394.664062c8.832031 0 16 7.167968 16 16 0 8.832031-7.167969 16-16 16zm0 0" data-original="#000000" class="active-path" data-old_color="#000000" fill="#F385A8"/></g> </svg>
