<?xml version="1.0" encoding="utf-8"?>
<!-- Generator: Adobe Illustrator 16.0.3, SVG Export Plug-In . SVG Version: 6.00 Build 0)  -->
<!DOCTYPE svg PUBLIC "-//W3C//DTD SVG 1.1//EN" "http://www.w3.org/Graphics/SVG/1.1/DTD/svg11.dtd">
<svg version="1.1" id="Capa_1" xmlns="http://www.w3.org/2000/svg" xmlns:xlink="http://www.w3.org/1999/xlink" x="0px" y="0px"
	 width="332.492px" height="332.492px" viewBox="0 0 332.492 332.492" enable-background="new 0 0 332.492 332.492"
	 xml:space="preserve">
<g>
	<path fill="#F385A8" d="M1.561,137.002c-9.5,34.23,26.016,73.688,61.552,73.688c2.594,0,5.134-0.197,7.641-0.498
		c12.139-1.226,19.996,2.258,25.046,6.75c7.083,6.311,7.635,22.289,8.791,31.705c1.81,14.734,7.809,24.992,13.688,31.734
		c6.229,7.158,19.96,14.67,29.147,17.041c4.624,1.195,9.53,2.18,14.069,2.949c9.352,1.585,24.725,2.568,34.201,2.215
		c29.663-1.109,65.597-11.343,98.851-44.598c73.793-73.786,24.037-146.306-15.588-179.155
		C164.777-15.798,28.679,39.248,1.561,137.002z M57.43,176.007c-12.893,0-23.335-10.449-23.335-23.335
		c0-12.89,10.442-23.338,23.335-23.338c12.889,0,23.334,10.455,23.334,23.338C80.764,165.552,70.319,176.007,57.43,176.007z
		 M117.973,122.393c-12.889,0-23.334-10.445-23.334-23.335c0-12.889,10.445-23.334,23.334-23.334
		c12.896,0,23.341,10.445,23.341,23.334C141.313,111.948,130.868,122.393,117.973,122.393z M165.915,268.703
		c-15.327,0-27.748-12.424-27.748-27.742c0-15.324,12.421-27.754,27.748-27.754c15.327,0,27.745,12.43,27.745,27.754
		C193.66,256.279,181.242,268.703,165.915,268.703z M186.725,122.393c-12.894,0-23.337-10.445-23.337-23.335
		c0-12.889,10.445-23.334,23.337-23.334c12.887,0,23.335,10.445,23.335,23.334C210.06,111.948,199.605,122.393,186.725,122.393z
		 M255.449,155.819c-12.88,0-23.328-10.454-23.328-23.335c0-12.889,10.448-23.334,23.328-23.334
		c12.898,0,23.342,10.445,23.342,23.334C278.791,145.371,268.348,155.819,255.449,155.819z"/>
</g>
</svg>
