<?xml version="1.0" encoding="utf-8"?>
<!-- Generator: Adobe Illustrator 16.0.3, SVG Export Plug-In . SVG Version: 6.00 Build 0)  -->
<!DOCTYPE svg PUBLIC "-//W3C//DTD SVG 1.1//EN" "http://www.w3.org/Graphics/SVG/1.1/DTD/svg11.dtd">
<svg version="1.1" id="Layer_1" xmlns="http://www.w3.org/2000/svg" xmlns:xlink="http://www.w3.org/1999/xlink" x="0px" y="0px"
	 width="512px" height="512px" viewBox="0 0 512 512" enable-background="new 0 0 512 512" xml:space="preserve">
<g>
	<path fill="#F385A8" d="M154.999,225.863c19.837-9.244,40.496-10.645,61.404-4.161c24.494,7.594,52.126,7.589,76.603,0
		c20.907-6.482,41.566-5.082,61.403,4.161c48.927,22.796,89.787,25.168,157.591,8.266c-3.469-3.447-8.418-8.609-14.68-15.139
		c-20.357-21.231-51.122-53.316-83.089-81.042c-41.732-36.198-71.772-53.189-94.538-53.472c-21.473-0.263-39.81,4.93-54.524,15.442
		c-5.466,3.905-12.257,3.905-17.726,0c-14.715-10.512-33.033-15.706-54.524-15.442c-22.764,0.283-52.805,17.273-94.538,53.472
		c-31.965,27.726-62.73,59.81-83.088,81.042c-6.291,6.56-11.259,11.742-14.729,15.189c-0.194,0.194-0.379,0.395-0.563,0.599
		C66.271,250.98,106.696,248.368,154.999,225.863L154.999,225.863z"/>
	<path fill="#F385A8" d="M437.014,275.697c-31.129,0-61.645-6.426-95.483-22.19c-12.939-6.029-25.854-6.904-39.492-2.676
		c-30.213,9.368-64.471,9.36-94.667,0c-13.636-4.228-26.553-3.353-39.492,2.676c-33.834,15.765-64.359,22.19-95.484,22.19
		c-21.872,0-44.046-3.18-67.873-8.516c14.93,32,34.283,60.047,57.667,83.498c22.686,22.754,48.793,40.758,77.592,53.517
		c34.956,15.486,74.161,23.339,116.526,23.339c42.363,0,81.568-7.854,116.524-23.338c28.798-12.758,54.903-30.764,77.59-53.514
		c23.583-23.65,43.063-51.979,58.044-84.318C483.276,272.189,459.974,275.697,437.014,275.697L437.014,275.697z"/>
</g>
</svg>
