<?xml version="1.0" encoding="utf-8"?>
<!-- Generator: Adobe Illustrator 16.0.3, SVG Export Plug-In . SVG Version: 6.00 Build 0)  -->
<!DOCTYPE svg PUBLIC "-//W3C//DTD SVG 1.1//EN" "http://www.w3.org/Graphics/SVG/1.1/DTD/svg11.dtd">
<svg version="1.1" id="Capa_1" xmlns="http://www.w3.org/2000/svg" xmlns:xlink="http://www.w3.org/1999/xlink" x="0px" y="0px"
	 width="612px" height="625px" viewBox="0 84.5 612 625" enable-background="new 0 84.5 612 625" xml:space="preserve">
<g>
	<g>
		<path fill="#999933" d="M594.054,90h-71.719c-8.854,0-16.384,6.464-17.723,15.218l-8.645,56.501H17.95
			c-10.968,0-19.382,9.782-17.724,20.636c1.978,12.951,47.517,311.147,49.652,325.125c1.336,8.756,8.867,15.224,17.723,15.224
			h373.133l-3.16,20.656c-1.356,8.81-8.809,15.203-17.722,15.203H80.069c-9.902,0-17.93,8.027-17.93,17.93
			c0,7.28,4.347,13.534,10.581,16.343c-6.704,10.907-10.581,23.731-10.581,37.446c0,39.546,32.173,71.719,71.719,71.719
			c39.545,0,71.719-32.173,71.719-71.719c0-13.059-3.525-25.301-9.649-35.859h102.969c-6.124,10.559-9.648,22.801-9.648,35.859
			c0,39.546,32.173,71.719,71.719,71.719s71.719-32.173,71.719-71.719c0-13.1-3.547-25.378-9.706-35.959
			c25.336-1.431,46.128-20.121,50.037-45.525c0.721-4.712,64.018-418.388,64.713-422.938h56.323c9.901,0,17.93-8.028,17.93-17.93
			S603.955,90,594.054,90z M133.858,666.141c-19.773,0-35.859-16.087-35.859-35.859s16.086-35.859,35.859-35.859
			s35.859,16.087,35.859,35.859S153.631,666.141,133.858,666.141z M360.968,666.141c-19.773,0-35.859-16.087-35.859-35.859
			s16.086-35.859,35.859-35.859c19.772,0,35.859,16.087,35.859,35.859S380.74,666.141,360.968,666.141z M169.718,486.844H83.001
			l-10.953-71.719h97.669V486.844z M169.718,379.266H66.572l-11.317-74.109h114.463V379.266z M169.718,269.297H49.779
			l-10.953-71.719h130.892V269.297z M325.108,486.844H205.577v-71.719h119.531V486.844z M325.108,379.266H205.577v-74.109h119.531
			V379.266z M325.108,269.297H205.577v-71.719h119.531V269.297z M446.221,486.844h-85.253v-71.719h96.226L446.221,486.844z
			 M462.682,379.266H360.968v-74.109h113.053L462.682,379.266z M479.507,269.297H360.968v-71.719h129.512L479.507,269.297z"/>
	</g>
</g>
</svg>
