<?xml version="1.0" encoding="utf-8"?>
<!-- Generator: Adobe Illustrator 16.0.3, SVG Export Plug-In . SVG Version: 6.00 Build 0)  -->
<!DOCTYPE svg PUBLIC "-//W3C//DTD SVG 1.1//EN" "http://www.w3.org/Graphics/SVG/1.1/DTD/svg11.dtd">
<svg version="1.1" id="Capa_1" xmlns="http://www.w3.org/2000/svg" xmlns:xlink="http://www.w3.org/1999/xlink" x="0px" y="0px"
	 width="612px" height="792px" viewBox="0 0 612 792" enable-background="new 0 0 612 792" xml:space="preserve">
<g>
	<g>
		<path fill="#555555" d="M306,90C137.271,90,0,227.271,0,396c0,73.899,26.336,141.76,70.115,194.697
			c0.112,0.153,0.123,0.347,0.245,0.49c31.61,38.117,71.309,67.34,115.546,86.221c0.51,0.214,1.01,0.448,1.52,0.662
			c3.581,1.51,7.201,2.907,10.833,4.274c1.428,0.54,2.856,1.091,4.305,1.611c3.131,1.122,6.283,2.183,9.455,3.203
			c2.03,0.652,4.06,1.295,6.11,1.907c2.805,0.836,5.62,1.643,8.456,2.407c2.489,0.673,4.998,1.295,7.507,1.897
			c2.54,0.611,5.09,1.224,7.65,1.765c2.856,0.611,5.742,1.152,8.639,1.683c2.326,0.429,4.641,0.877,6.987,1.255
			c3.213,0.52,6.447,0.928,9.69,1.346c2.091,0.266,4.171,0.571,6.273,0.796c3.672,0.388,7.375,0.663,11.087,0.918
			c1.724,0.123,3.437,0.307,5.171,0.398C295.004,701.837,300.482,702,306,702c5.519,0,10.996-0.163,16.433-0.449
			c1.733-0.092,3.447-0.275,5.171-0.397c3.713-0.265,7.416-0.53,11.088-0.918c2.101-0.225,4.182-0.53,6.272-0.796
			c3.244-0.418,6.478-0.826,9.69-1.346c2.336-0.378,4.661-0.826,6.986-1.255c2.887-0.53,5.773-1.071,8.64-1.683
			c2.561-0.551,5.101-1.153,7.65-1.765c2.509-0.612,5.019-1.234,7.507-1.897c2.836-0.755,5.651-1.571,8.456-2.407
			c2.05-0.612,4.08-1.255,6.109-1.907c3.173-1.021,6.324-2.081,9.456-3.203c1.438-0.521,2.866-1.071,4.304-1.611
			c3.642-1.367,7.253-2.774,10.833-4.274c0.51-0.214,1.01-0.448,1.52-0.663c44.228-18.88,83.936-48.103,115.546-86.22
			c0.122-0.144,0.132-0.348,0.244-0.49C585.664,537.76,612,469.899,612,396C612,227.271,474.729,90,306,90z M430.001,653.244
			c-0.152,0.071-0.295,0.152-0.448,0.225c-3.642,1.754-7.344,3.406-11.077,5.018c-0.847,0.357-1.684,0.725-2.529,1.082
			c-3.265,1.366-6.569,2.662-9.895,3.906c-1.387,0.521-2.774,1.03-4.172,1.52c-2.947,1.051-5.905,2.061-8.895,3.02
			c-1.856,0.592-3.723,1.152-5.589,1.703c-2.652,0.796-5.314,1.561-8.008,2.274c-2.264,0.603-4.549,1.153-6.834,1.693
			c-2.396,0.571-4.783,1.152-7.201,1.663c-2.642,0.561-5.304,1.04-7.956,1.52c-2.151,0.397-4.294,0.816-6.467,1.163
			c-2.988,0.469-6.008,0.847-9.017,1.224c-1.907,0.245-3.805,0.53-5.732,0.734c-3.438,0.367-6.905,0.602-10.363,0.847
			c-1.54,0.102-3.07,0.275-4.631,0.356c-5.049,0.266-10.107,0.408-15.188,0.408c-5.08,0-10.139-0.143-15.178-0.408
			c-1.55-0.081-3.08-0.244-4.631-0.356c-3.468-0.234-6.926-0.479-10.363-0.847c-1.928-0.204-3.825-0.489-5.732-0.734
			c-3.009-0.377-6.028-0.755-9.017-1.224c-2.172-0.347-4.314-0.766-6.467-1.163c-2.662-0.479-5.324-0.969-7.956-1.52
			c-2.417-0.511-4.814-1.092-7.201-1.663c-2.285-0.551-4.569-1.091-6.834-1.693c-2.683-0.714-5.355-1.489-8.007-2.274
			c-1.867-0.551-3.733-1.111-5.59-1.703c-2.988-0.959-5.957-1.969-8.894-3.02c-1.397-0.5-2.785-1.01-4.172-1.52
			c-3.325-1.244-6.63-2.54-9.894-3.906c-0.847-0.348-1.673-0.715-2.52-1.071c-3.733-1.602-7.436-3.264-11.087-5.019
			c-0.153-0.071-0.296-0.143-0.449-0.225c-35.588-17.217-67.024-41.656-92.534-71.339c19.716-72.604,75.531-131.131,147.339-154.417
			c1.417,0.866,2.896,1.642,4.355,2.458c0.856,0.479,1.703,0.989,2.57,1.448c3.04,1.611,6.12,3.121,9.272,4.478
			c2.417,1.061,4.916,1.959,7.405,2.877c0.49,0.173,0.979,0.367,1.469,0.54C275.716,444.195,290.517,447,306,447
			s30.284-2.805,44.104-7.701c0.49-0.173,0.979-0.367,1.469-0.54c2.489-0.918,4.988-1.816,7.405-2.877
			c3.152-1.356,6.232-2.866,9.272-4.478c0.866-0.47,1.713-0.969,2.57-1.448c1.458-0.816,2.947-1.592,4.376-2.469
			c71.808,23.297,127.611,81.824,147.339,154.418C497.025,611.577,465.589,636.017,430.001,653.244z M193.8,314.4
			c0-61.863,50.337-112.2,112.2-112.2c61.863,0,112.2,50.337,112.2,112.2c0,39.352-20.41,73.98-51.163,94.013
			c-4.02,2.611-8.201,4.947-12.495,6.987c-0.51,0.245-1.01,0.5-1.52,0.734c-29.54,13.434-64.505,13.434-94.044,0
			c-0.51-0.234-1.02-0.489-1.52-0.734c-4.304-2.04-8.476-4.376-12.495-6.987C214.21,388.38,193.8,353.751,193.8,314.4z
			 M537.836,562.494c-23.123-68.278-75.878-123.46-143.279-149.674c26.958-24.287,44.043-59.354,44.043-98.42
			c0-73.114-59.486-132.6-132.6-132.6c-73.114,0-132.6,59.486-132.6,132.6c0,39.066,17.085,74.134,44.054,98.419
			c-67.401,26.225-120.156,81.396-143.279,149.675C40.382,515.585,20.4,458.098,20.4,396c0-157.478,128.122-285.6,285.6-285.6
			c157.478,0,285.6,128.123,285.6,285.6C591.6,458.098,571.618,515.585,537.836,562.494z"/>
	</g>
</g>
</svg>
